<?xml version="1.0" standalone="no"?>
<!DOCTYPE svg PUBLIC "-//W3C//DTD SVG 20010904//EN"
 "http://www.w3.org/TR/2001/REC-SVG-20010904/DTD/svg10.dtd">
<svg version="1.0" xmlns="http://www.w3.org/2000/svg"
 width="640.000000pt" height="640.000000pt" viewBox="0 0 640.000000 640.000000"
 preserveAspectRatio="xMidYMid meet">

<g transform="translate(0.000000,640.000000) scale(0.100000,-0.100000)"
fill="#000000" stroke="none">
<path d="M4066 2492 c-142 -356 -260 -654 -262 -662 -4 -13 -4 -13 6 0 6 8 74
118 151 245 l141 230 99 365 c55 201 107 387 115 413 47 142 -17 -8 -250 -591z"/>
<path d="M2911 2507 c-281 -703 -274 -687 -260 -667 5 8 71 115 145 237 l135
221 104 379 c57 208 109 391 115 407 6 16 9 30 8 32 -2 1 -113 -273 -247 -609z"/>
</g>
</svg>
